<svg width="44" height="45" viewBox="0 0 44 45" fill="none" xmlns="http://www.w3.org/2000/svg">
<mask id="mask0_3_378" style="mask-type:alpha" maskUnits="userSpaceOnUse" x="0" y="0" width="44" height="45">
<rect y="0.333252" width="44" height="44" fill="#D9D9D9"/>
</mask>
<g mask="url(#mask0_3_378)">
<path d="M24.717 39.75C21.6654 39.75 19.0659 38.6799 16.9185 36.5398C14.771 34.3997 13.6973 31.8031 13.6973 28.75V27.7485C11.2223 27.4268 9.15215 26.3233 7.48687 24.438C5.82159 22.553 4.98895 20.3237 4.98895 17.75V7.20833H10.489V5.375H13.239V11.7917H10.489V9.95833H7.73895V17.75C7.73895 19.7667 8.45701 21.4931 9.89312 22.9292C11.3292 24.3653 13.0556 25.0833 15.0723 25.0833C17.089 25.0833 18.8153 24.3653 20.2515 22.9292C21.6876 21.4931 22.4056 19.7667 22.4056 17.75V9.95833H19.6556V11.7917H16.9056V5.375H19.6556V7.20833H25.1556V17.75C25.1556 20.3237 24.323 22.553 22.6577 24.438C20.9924 26.3233 18.9223 27.4268 16.4473 27.7485V28.75C16.4473 31.0417 17.251 32.9896 18.8586 34.5938C20.4661 36.1979 22.4181 37 24.7147 37C27.0064 37 28.9543 36.1979 30.5585 34.5938C32.1626 32.9896 32.9647 31.0417 32.9647 28.75V25.785C32.001 25.5006 31.2078 24.9464 30.585 24.1227C29.962 23.2989 29.6505 22.3616 29.6505 21.3108C29.6505 20.0085 30.1067 18.9015 31.0191 17.9897C31.9312 17.0779 33.0388 16.622 34.342 16.622C35.6449 16.622 36.7518 17.0779 37.6626 17.9897C38.5735 18.9015 39.0289 20.0085 39.0289 21.3108C39.0289 22.3616 38.7174 23.2989 38.0944 24.1227C37.4716 24.9464 36.6784 25.5006 35.7147 25.785V28.75C35.7147 31.8031 34.6446 34.3997 32.5045 36.5398C30.3644 38.6799 27.7686 39.75 24.717 39.75ZM34.3397 23.25C34.8827 23.25 35.3416 23.0625 35.7165 22.6876C36.0915 22.3127 36.2789 21.8538 36.2789 21.3108C36.2789 20.7678 36.0915 20.309 35.7165 19.9344C35.3416 19.5595 34.8827 19.372 34.3397 19.372C33.7967 19.372 33.3378 19.5595 32.9629 19.9344C32.588 20.309 32.4005 20.7678 32.4005 21.3108C32.4005 21.8538 32.588 22.3127 32.9629 22.6876C33.3378 23.0625 33.7967 23.25 34.3397 23.25Z" fill="#787878"/>
</g>
</svg>
