<svg width="24" height="24" viewBox="0 0 24 24" fill="none" xmlns="http://www.w3.org/2000/svg">
<mask id="mask0_116_480" style="mask-type:alpha" maskUnits="userSpaceOnUse" x="0" y="0" width="24" height="24">
<rect width="24" height="24" fill="#7D7D7D"/>
</mask>
<g mask="url(#mask0_116_480)">
<path d="M22.6904 6.78271C22.8613 6.78271 23 6.9214 23 7.09229V13.0737C23 13.1567 22.9674 13.2353 22.9092 13.2935L19.9443 16.2583C19.8862 16.3163 19.8072 16.3481 19.7256 16.3481H4.27441C4.19159 16.3481 4.11382 16.3163 4.05566 16.2583L1.09082 13.2935C1.03261 13.2352 1 13.1555 1 13.0737V7.09229C1.00002 6.92141 1.1387 6.78274 1.30957 6.78271H22.6904ZM3.41504 8.88721C3.24413 8.88721 3.10547 9.02587 3.10547 9.19678V12.2007C3.10547 12.2824 3.1371 12.3622 3.19531 12.4204L4.92676 14.1519C4.98496 14.21 5.06354 14.2417 5.14648 14.2417H18.8535C18.935 14.2417 19.0141 14.2098 19.0723 14.1519L20.8037 12.4204C20.8619 12.3622 20.8945 12.2837 20.8945 12.2007V9.19678C20.8945 9.02591 20.7558 8.88727 20.585 8.88721H3.41504Z" fill="#7D7D7D"/>
<path d="M7.50669 10.0728H5.9997V11.9336L7.12322 13.0571H8.3608V12.1662C8.3608 12.0423 8.46138 11.9417 8.58532 11.9417C8.70926 11.9417 8.80984 12.0423 8.80984 12.1662V13.0571H10.0681V12.1662C10.0681 12.0423 10.1687 11.9417 10.2926 11.9417C10.4166 11.9417 10.5171 12.0423 10.5171 12.1662V13.0571H11.7754V12.1662C11.7754 12.0423 11.876 11.9417 11.9999 11.9417C12.1238 11.9417 12.2244 12.0423 12.2244 12.1662V13.0571H13.4827V12.1662C13.4827 12.0423 13.5833 11.9417 13.7072 11.9417C13.8311 11.9417 13.9317 12.0423 13.9317 12.1662V13.0571H15.19V12.1662C15.19 12.0423 15.2906 11.9417 15.4145 11.9417C15.5384 11.9417 15.639 12.0423 15.639 12.1662V13.0571H16.8766L18.0001 11.9336V10.0728H16.4922V10.9906C16.4922 11.1145 16.3916 11.2151 16.2677 11.2151C16.1437 11.2151 16.0432 11.1145 16.0432 10.9906V10.0728H14.7849V10.9906C14.7849 11.1145 14.6843 11.2151 14.5604 11.2151C14.4364 11.2151 14.3359 11.1145 14.3359 10.9906V10.0728H13.0776V10.9906C13.0776 11.1145 12.977 11.2151 12.8531 11.2151C12.7292 11.2151 12.6286 11.1145 12.6286 10.9906V10.0728H11.3703V10.9906C11.3703 11.1145 11.2697 11.2151 11.1458 11.2151C11.0219 11.2151 10.9213 11.1145 10.9213 10.9906V10.0728H9.66303V10.9906C9.66303 11.1145 9.56244 11.2151 9.4385 11.2151C9.31457 11.2151 9.21398 11.1145 9.21398 10.9906V10.0728H7.95574V10.9906C7.95574 11.1145 7.85515 11.2151 7.73121 11.2151C7.60727 11.2151 7.50669 11.1145 7.50669 10.9906V10.0728Z" fill="#7D7D7D"/>
</g>
</svg>
